<svg viewBox="0 0 96 96" xmlns="http://www.w3.org/2000/svg" xmlns:xlink="http://www.w3.org/1999/xlink" id="Icons_Cauldron_M" overflow="hidden"><g id="Icons"><path d="M54.5 30C58.0899 30 61 27.0899 61 23.5 61 19.9101 58.0899 17 54.5 17 50.9101 17 48 19.9101 48 23.5 48.0044 27.088 50.912 29.9956 54.5 30ZM54.5 19C56.9853 19 59 21.0147 59 23.5 59 25.9853 56.9853 28 54.5 28 52.0147 28 50 25.9853 50 23.5 50.0028 21.0159 52.0159 19.0028 54.5 19Z"/><path d="M69.5 19C71.9853 19 74 16.9853 74 14.5 74 12.0147 71.9853 10 69.5 10 67.0147 10 65 12.0147 65 14.5 65.0028 16.9841 67.0159 18.9972 69.5 19ZM69.5 12C70.8807 12 72 13.1193 72 14.5 72 15.8807 70.8807 17 69.5 17 68.1193 17 67 15.8807 67 14.5 67 13.1193 68.1193 12 69.5 12Z"/><path d="M57.5 11C59.433 11 61 9.433 61 7.5 61 5.567 59.433 4 57.5 4 55.567 4 54 5.567 54 7.5 54 9.433 55.567 11 57.5 11ZM57.5 6C58.3284 6 59 6.67157 59 7.5 59 8.32843 58.3284 9 57.5 9 56.6716 9 56 8.32843 56 7.5 56 6.67157 56.6716 6 57.5 6Z"/><path d="M85 59.5C84.9564 52.9697 82.6493 46.6566 78.472 41.637 77.1293 39.9752 76.7765 37.7227 77.547 35.73 79.667 34.63 81 33.24 81 31.492 81 26.869 71.741 24.757 62.985 23.792 62.9633 24.4572 62.8626 25.1175 62.685 25.759 72.4 26.859 79 29.014 79 31.492 79 35.086 65.121 38 48 38 30.879 38 17 35.086 17 31.492 17 28.029 29.886 25.2 46.14 25 46.049 24.5051 46.0021 24.0032 46 23.5 46 23.333 46.016 23.169 46.025 23 38.517 23.132 15 24.122 15 31.492 15 33.24 16.333 34.626 18.453 35.73 19.2235 37.7227 18.8707 39.9752 17.528 41.637 13.3507 46.6566 11.0436 52.9697 11 59.5 11 68.6 15.541 76.8 22.793 82.55L21.172 84.171C19.5924 85.7154 19.5638 88.2479 21.1082 89.8275 22.6526 91.4071 25.1851 91.4357 26.7647 89.8913 26.786 89.8704 26.8071 89.8493 26.828 89.828L29.756 86.9C41.3047 92.3653 54.6953 92.3653 66.244 86.9L69.172 89.827C70.7167 91.4063 73.2492 91.4345 74.8285 89.8898 76.4079 88.3452 76.436 85.8126 74.8913 84.2333 74.8704 84.212 74.8493 84.1909 74.828 84.17L73.207 82.55C80.459 76.8 85 68.6 85 59.5ZM25.413 88.415C24.6315 89.1957 23.3652 89.195 22.5845 88.4135 21.8038 87.632 21.8045 86.3657 22.586 85.585L24.407 83.765C25.5283 84.5516 26.6917 85.2763 27.892 85.936ZM73.413 85.585C74.1942 86.3659 74.1944 87.6323 73.4135 88.4135 72.6326 89.1947 71.3662 89.1949 70.585 88.414L68.107 85.936C69.3075 85.2766 70.4709 84.5518 71.592 83.765ZM48 89C28.7 89 13 75.766 13 59.5 13.0428 53.4291 15.1926 47.5616 19.082 42.9 20.4867 41.1751 21.1034 38.9401 20.782 36.739L20.821 36.75C29.622 39.877 45.575 40 48 40 50.425 40 66.3 39.877 75.118 36.77 75.155 36.757 75.223 36.736 75.223 36.736 74.9016 38.9371 75.5183 41.1721 76.923 42.897 80.8112 47.56 82.9593 53.4287 83 59.5 83 75.766 67.3 89 48 89Z"/></g></svg>