<svg viewBox="0 0 96 96" xmlns="http://www.w3.org/2000/svg" xmlns:xlink="http://www.w3.org/1999/xlink" id="Icons_FamilyWithTwoChildren_M" overflow="hidden"><g id="Icons"><path d="M86.1 63.462 86.1 60.617C86.1 60.0647 85.6523 59.617 85.1 59.617 84.5477 59.617 84.1 60.0647 84.1 60.617L84.1 63.973 86.313 68.02 81.1 68.02C81.0381 67.9933 80.9679 67.9933 80.906 68.02L75.686 68.02 78.1 63.572 78.1 58C78.1 57.4477 77.6523 57 77.1 57 76.5477 57 76.1 57.4477 76.1 58L76.1 63.063 72.322 70.02 76 70.02 76 79.02 86 79.02 86 70.02 89.69 70.02ZM78 70.02 80 70.02 80 77.02 78 77.02ZM84 77.02 82 77.02 82 70.02 84 70.02Z"/><path d="M65 45.294 65 40C65 39.4477 64.5523 39 64 39L64 39C63.4477 39 63 39.4477 63 40L63 45.413 66.232 59.013 59.082 59.013C59.0297 58.9903 58.9703 58.9903 58.918 59.013L51.771 59.013 55 45.53 55 40C55 39.4477 54.5523 39 54 39L54 39C53.4477 39 53 39.4477 53 40L53 45.3 49.235 61.017 53 61.017 53 79.022 65 79.022 65 61.017 68.768 61.017ZM55 61.017 58 61.017 58 77.022 55 77.022ZM63 77.022 60 77.022 60 61.017 63 61.017Z"/><path d="M42 39C41.4477 39 41 39.4477 41 40L41 77.022 38 77.022 38 55 36 55 36 77.022 33 77.022 33 40C33 39.4477 32.5523 39 32 39 31.4477 39 31 39.4477 31 40L31 79.022 43 79.022 43 40C43 39.4477 42.5523 39 42 39Z"/><path d="M19 57C18.4477 57 18 57.4477 18 58L18 77.022 16 77.022 16 68 14 68 14 77.022 12 77.022 12 60.617C12 60.0647 11.5523 59.617 11 59.617 10.4477 59.617 10 60.0647 10 60.617L10 79.022 20 79.022 20 58C20 57.4477 19.5523 57 19 57Z"/><path d="M92.018 64 88.8 56.366 88.7 56.172C88.672 56.12 88.605 55.993 88.58 55.958 87.3126 54.1244 85.4182 52.8176 83.254 52.284 81.7877 51.8773 80.2395 51.869 78.769 52.26 78.1484 52.4083 77.545 52.6215 76.969 52.896L70.889 50.291 67.858 34.191C67.7127 33.5495 67.345 32.9802 66.82 32.584 65.55 31.6314 64.1104 30.9289 62.578 30.514 61.4061 30.1841 60.1954 30.012 58.978 30.002 57.7324 30.02 56.4937 30.1913 55.29 30.512 53.7718 30.921 52.3448 31.6135 51.084 32.553 50.5325 32.9799 50.1442 33.5832 49.984 34.262L47.95 46.043C47.95 46.0485 47.9455 46.053 47.94 46.053 47.9345 46.053 47.93 46.0485 47.93 46.043L46 34.187C45.8385 33.5546 45.4743 32.9926 44.963 32.587 43.6869 31.6291 42.2402 30.9229 40.7 30.506 39.5004 30.1873 38.2661 30.0174 37.025 30 35.8104 30.01 34.6024 30.1815 33.433 30.51 31.898 30.9253 30.4561 31.6288 29.184 32.583 28.6461 32.9935 28.2738 33.5837 28.135 34.246L25.116 50.291 19.036 52.9C18.4864 52.6355 17.9101 52.4304 17.317 52.288 15.8507 51.8813 14.3025 51.873 12.832 52.264 10.6714 52.7833 8.77105 54.0656 7.481 55.875 7.43927 55.933 7.40342 55.9949 7.374 56.06 7.353 56.115 7.305 56.228 7.305 56.228L4.953 64.09C4.67168 64.8971 4.73833 65.7849 5.137 66.541 5.5484 67.2529 6.24264 67.7566 7.047 67.927 7.58244 68.0629 8.12664 67.7389 8.2625 67.2035 8.39836 66.6681 8.07444 66.1239 7.539 65.988 7.27221 65.9447 7.03536 65.7926 6.885 65.568 6.76066 65.2842 6.75382 64.9628 6.866 64.674L9.1 57.042C10.1297 55.5993 11.6505 54.582 13.377 54.181 14.4882 53.881 15.6601 53.8893 16.767 54.205 17.378 54.3516 17.967 54.5779 18.519 54.878L18.945 55.11 25.769 52.186 26.935 53.351C27.3323 53.7347 27.9653 53.7237 28.349 53.3264 28.7233 52.9389 28.7233 52.3245 28.349 51.937L27.08 50.666 30.088 34.672C30.1247 34.4778 30.2315 34.3038 30.388 34.183 31.4569 33.3814 32.6684 32.7902 33.958 32.441 34.9563 32.1588 35.9876 32.0105 37.025 32 38.0965 32.0174 39.1618 32.1661 40.197 32.443 41.4981 32.7961 42.72 33.3941 43.797 34.205 43.9021 34.3176 43.9858 34.4484 44.044 34.591L46.923 52.3C47.0012 52.7823 47.4164 53.1375 47.905 53.14L47.905 53.14C48.3919 53.1403 48.8082 52.7898 48.891 52.31L51.937 34.672C51.9925 34.485 52.0959 34.3158 52.237 34.181 53.3 33.3826 54.505 32.7934 55.788 32.445 56.8287 32.1664 57.8998 32.0169 58.977 32 60.0178 32.0103 61.0526 32.1593 62.054 32.443 63.3411 32.7918 64.5502 33.382 65.617 34.182 65.7594 34.2893 65.8601 34.4427 65.902 34.616L68.922 50.666 67.709 51.879C67.3117 52.2627 67.3007 52.8957 67.6844 53.293 68.0681 53.6903 68.7012 53.7013 69.0984 53.3176 69.1068 53.3095 69.115 53.3013 69.123 53.293L70.23 52.186 76.608 54.919C76.9006 55.0396 77.2323 55.0194 77.508 54.864 78.0797 54.5591 78.6884 54.3295 79.319 54.181 80.4302 53.881 81.6021 53.8893 82.709 54.205 84.4227 54.6165 85.926 55.6423 86.934 57.088L90.184 64.798C90.3561 65.2144 90.2341 65.6944 89.884 65.978 89.4738 66.3478 89.4409 66.9801 89.8107 67.3903 90.1671 67.7857 90.7708 67.8326 91.184 67.497 92.207 66.6454 92.5466 65.2216 92.018 64Z"/><path d="M37 28C39.7614 28 42 25.7614 42 23 42 20.2386 39.7614 18 37 18 34.2386 18 32 20.2386 32 23 32.0033 25.7601 34.2399 27.9967 37 28ZM37 20C38.6569 20 40 21.3431 40 23 40 24.6569 38.6569 26 37 26 35.3431 26 34 24.6569 34 23 34 21.3431 35.3431 20 37 20Z"/><path d="M59 28C61.7614 28 64 25.7614 64 23 64 20.2386 61.7614 18 59 18 56.2386 18 54 20.2386 54 23 54.0033 25.7601 56.2399 27.9967 59 28ZM59 20C60.6569 20 62 21.3431 62 23 62 24.6569 60.6569 26 59 26 57.3431 26 56 24.6569 56 23 56 21.3431 57.3431 20 59 20Z"/><path d="M15 51C17.2091 51 19 49.2091 19 47 19 44.7909 17.2091 43 15 43 12.7909 43 11 44.7909 11 47 11 49.2091 12.7909 51 15 51ZM15 45C16.1046 45 17 45.8954 17 47 17 48.1046 16.1046 49 15 49 13.8954 49 13 48.1046 13 47 13 45.8954 13.8954 45 15 45Z"/><path d="M81 51C83.2091 51 85 49.2091 85 47 85 44.7909 83.2091 43 81 43 78.7909 43 77 44.7909 77 47 77 49.2091 78.7909 51 81 51ZM81 45C82.1046 45 83 45.8954 83 47 83 48.1046 82.1046 49 81 49 79.8954 49 79 48.1046 79 47 79 45.8954 79.8954 45 81 45Z"/></g></svg>