<svg viewBox="0 0 96 96" xmlns="http://www.w3.org/2000/svg" xmlns:xlink="http://www.w3.org/1999/xlink" id="Icons_GenieBottle_M" overflow="hidden"><g id="Icons"><path d="M91.957 41.406C91.7859 40.3325 91.0446 39.4368 90.022 39.068 89.7423 37.4221 89.125 35.8518 88.209 34.456 85.021 29.55 75.369 26.9 73.47 23.885 71.289 20.429 73.407 17.54 74.533 17.54 74.855 17.54 75.096 17.777 75.133 18.305 75.1822 21.2427 77.0587 23.8378 79.833 24.805 83.4108 25.9466 87.2367 23.9716 88.3782 20.3938 88.5906 19.7281 88.6992 19.0337 88.7 18.335 88.7 11.306 83.474 6.795 76.7 6.095 68.489 5.248 61 11.544 60.95 19.795 60.904 27.514 67.658 30.967 74.827 33.749 79.075 35.398 82.013 36.686 84.727 38.898 83.4773 38.9378 82.259 39.2995 81.19 39.948 76.908 42.3236 72.3734 44.212 67.671 45.578 65.7735 46.1235 63.8332 46.5075 61.871 46.726 61.5658 45.9837 61.2117 45.2624 60.811 44.567 58.1593 40.1891 53.7393 37.1765 48.695 36.309 50.8046 34.1235 50.743 30.6416 48.5574 28.532 46.3719 26.4225 42.89 26.4841 40.7805 28.6696 38.7179 30.8065 38.7243 34.195 40.795 36.324 35.2743 37.3012 30.5349 40.8183 28 45.819 27.811 46.206 27.638 46.601 27.477 47L27.185 47C24.6143 47.0171 22.1864 48.1846 20.568 50.182 20.5125 48.7885 20.259 47.41 19.815 46.088 17.881 41.196 12.938 38.545 8.792 40.188 6.70205 41.0476 5.11371 42.8072 4.472 44.974 3.75286 47.2915 3.86318 49.787 4.784 52.032 6.174 55.55 12.884 61.383 16.294 64.032 16.8147 64.4233 17.2256 64.9424 17.487 65.539 18.0931 66.694 17.9761 68.0954 17.187 69.134 16.4074 70.2736 14.8516 70.5653 13.7121 69.7857 13.7117 69.7855 13.7114 69.7852 13.711 69.785 13.2637 69.4611 12.6385 69.561 12.3145 70.0083 11.9906 70.4556 12.0906 71.0809 12.5379 71.4048 12.5523 71.4153 12.567 71.4253 12.582 71.435 13.3269 71.9477 14.2097 72.2225 15.114 72.223 15.7639 72.2221 16.4066 72.0859 17.001 71.823 17.803 71.4515 18.478 70.8523 18.942 70.1 19.4209 69.3916 19.7248 68.5797 19.829 67.731 19.837 67.665 19.971 63.809 20.016 63.419 21.2711 66.0327 23.1395 68.3043 25.462 70.04 29.78 73.3376 34.9487 75.3357 40.362 75.8 39.3068 76.8515 38.6675 78.2491 38.562 79.735 34.7914 80.8597 31.542 83.2856 29.392 86.581 29.152 86.9497 28.9253 87.319 28.712 87.689 28.4359 88.1673 28.5997 88.7789 29.078 89.055 29.2297 89.1426 29.4018 89.1888 29.577 89.189L60 89.189C60.5523 89.1884 60.9995 88.7403 60.999 88.188 60.9988 88.0128 60.9526 87.8407 60.865 87.689 60.651 87.32 60.425 86.95 60.185 86.582 58.0142 83.2548 54.7235 80.8152 50.909 79.705 50.7903 78.1467 50.0848 76.6915 48.935 75.633 57.9 74.3 64.6 69.133 74.005 59.781 77.559 56.248 81.338 52.855 84.994 49.573 87.136 47.651 89.159 45.834 90.982 44.126 91.741 43.4391 92.1068 42.4186 91.957 41.406ZM18.627 55.156C18.627 55.182 18.573 56.519 18.571 56.556 18.456 58.94 18.249 61.231 18.071 62.849 14.427 60.127 7.788 54.2 6.642 51.294 5.89311 49.483 5.7973 47.4679 6.371 45.594 6.83262 43.9961 7.99136 42.6922 9.524 42.046 10.1115 41.8145 10.7375 41.6965 11.369 41.698 14.009 41.698 16.717 43.698 17.953 46.825 18.616 48.5 18.732 51.809 18.627 55.156ZM75.549 31.889C67.769 28.869 62.949 25.807 62.949 19.877 62.9562 13.3209 68.2689 8.00772 74.825 8 80.545 8 86.7 11.234 86.7 18.335 86.6967 20.9761 84.5561 23.1162 81.915 23.119 79.2608 23.0515 77.1406 20.887 77.128 18.232 77.1672 16.785 76.026 15.5801 74.579 15.5409 74.562 15.5404 74.545 15.5401 74.528 15.54 73.1177 15.6639 71.881 16.5318 71.285 17.816 70.122 20.1037 70.3099 22.8453 71.774 24.953 72.893 26.726 75.416 28.08 78.338 29.647 81.472 31.328 85.025 33.234 86.527 35.547 87.1917 36.566 87.6686 37.6959 87.935 38.883L87.672 38.883C84.15 35.414 80.611 33.854 75.549 31.889ZM44.738 29C46.671 29 48.238 30.567 48.238 32.5 48.238 34.433 46.671 36 44.738 36 42.805 36 41.238 34.433 41.238 32.5 41.238 30.567 42.805 29 44.738 29ZM29.8 46.7C32.5772 41.3007 38.1657 37.933 44.237 38L45.288 38C50.9035 37.9188 56.1468 40.8007 59.088 45.585 59.343 46.019 59.569 46.468 59.781 46.923 59.031 46.967 58.281 47 57.517 47L29.665 47C29.711 46.9 29.747 46.8 29.8 46.7ZM58.16 87.192 31.421 87.192C31.4155 87.1926 31.4106 87.1886 31.41 87.1831 31.4097 87.1806 31.4105 87.178 31.412 87.176 34.2165 83.2675 38.7445 80.9645 43.555 81L46.026 81C50.8364 80.9648 55.3643 83.2677 58.169 87.176 58.1723 87.1804 58.1715 87.1867 58.1671 87.19 58.1651 87.1916 58.1625 87.1923 58.16 87.192ZM40.652 79.249C41.1855 76.9916 43.448 75.5941 45.7054 76.1276 47.2471 76.4919 48.4526 77.6927 48.823 79.233 47.8975 79.0799 46.9611 79.002 46.023 79L43.555 79C42.5821 79.0019 41.611 79.0852 40.652 79.249ZM89.675 42.61C87.854 44.319 85.815 46.148 83.658 48.085 79.983 51.385 76.185 54.794 72.595 58.363 61.72 69.176 55.011 74 44 74 37.7626 74.1702 31.6529 72.2133 26.675 68.451 22.659 65.388 20.447 61.095 20.575 56.651 20.599 56.151 20.62 55.642 20.635 55.129 20.896 51.6961 23.7403 49.0337 27.183 49L57.513 49C61.1378 49.0116 64.7457 48.5065 68.228 47.5 73.1015 46.0811 77.8002 44.1194 82.236 41.652 83.0779 41.1411 84.0452 40.8742 85.03 40.881L88.994 40.881C89.5463 40.8835 89.992 41.3333 89.9894 41.8856 89.9882 42.1596 89.8745 42.4211 89.675 42.609Z"/></g></svg>