<svg viewBox="0 0 96 96" xmlns="http://www.w3.org/2000/svg" xmlns:xlink="http://www.w3.org/1999/xlink" id="Icons_MagicWandAuto_M" overflow="hidden"><g id="Icons"><path d="M78.4 11C75.2625 15.0127 70.5793 17.5176 65.5 17.9 68.9714 21.65 70.6491 26.7194 70.1 31.8 73.1792 27.7185 77.8958 25.1956 83 24.9 79.5286 21.15 77.8509 16.0806 78.4 11ZM79.33 23.448C76.652 24.1121 74.1464 25.3394 71.98 27.048 71.5892 24.2978 70.6173 21.6624 69.129 19.317 71.8131 18.6309 74.3272 17.3997 76.515 15.7 76.8976 18.4488 77.8606 21.0848 79.34 23.433 79.344 23.4376 79.3435 23.4445 79.339 23.4485 79.3375 23.4498 79.3358 23.4506 79.334 23.451Z"/><path d="M37.5 38.611C41.2623 33.7941 46.901 30.811 53 30.411 49 26.311 47 20.311 47.5 13.811 43.7378 18.6281 38.0991 21.6112 32 22.011 36 26.107 38 32.209 37.5 38.611ZM35.786 23.525C39.4006 22.685 42.7612 20.9906 45.586 18.584 45.9573 22.2602 47.2041 25.7938 49.222 28.889 45.6098 29.7293 42.2515 31.4225 39.428 33.827 39.0553 30.1512 37.8064 26.6183 35.786 23.525Z"/><path d="M77.6 39.211C75.3963 42.043 72.0817 43.7914 68.5 44.011 70.9154 46.6719 72.0797 50.2375 71.7 53.811 73.9037 50.979 77.2183 49.2306 80.8 49.011 78.3846 46.3501 77.2203 42.7845 77.6 39.211ZM73.471 49.466C73.1693 48.0477 72.6556 46.6831 71.947 45.418 73.3289 44.9965 74.6398 44.3702 75.836 43.56 76.1381 44.9781 76.6519 46.3427 77.36 47.608 75.9782 48.0297 74.6673 48.6559 73.471 49.466Z"/><path d="M12.171 80.171 17.829 85.828 65.954 37.7 60.3 32.037ZM17.828 83 15 80.171 50.833 44.33 53.663 47.16ZM55.077 45.745 52.247 42.916 60.296 34.866 63.125 37.7Z"/></g></svg>