<svg viewBox="0 0 96 96" xmlns="http://www.w3.org/2000/svg" xmlns:xlink="http://www.w3.org/1999/xlink" id="Icons_MomWithBaby_M" overflow="hidden"><g id="Icons"><path d="M46.515 19C50.9333 19 54.515 15.4183 54.515 11 54.515 6.58172 50.9333 3 46.515 3 42.0967 3 38.515 6.58172 38.515 11 38.52 15.4162 42.0988 18.995 46.515 19ZM46.515 5C49.8287 5 52.515 7.68629 52.515 11 52.515 14.3137 49.8287 17 46.515 17 43.2013 17 40.515 14.3137 40.515 11 40.5189 7.68789 43.2029 5.00386 46.515 5Z"/><path d="M32.342 55.392C32.5583 54.8838 32.3217 54.2965 31.8135 54.0802 31.8134 54.0802 31.8132 54.0801 31.813 54.08 31.189 53.814 30.382 53.229 30.564 51.258L33.527 30.25C33.5803 29.7724 33.7192 29.3083 33.937 28.88 34.0676 28.6411 34.2196 28.4145 34.391 28.203 37.5189 24.9028 41.8591 23.0233 46.406 23 46.442 23 46.471 22.982 46.506 22.978 46.5426 22.9873 46.5796 22.9947 46.617 23L46.717 23C48.4833 22.9999 50.2369 23.2994 51.903 23.886 53.1291 24.2964 54.3023 24.8505 55.398 25.537 56.0098 25.0874 56.6835 24.7287 57.398 24.472 54.2471 22.2286 50.4789 21.0157 46.611 21 46.577 21 46.548 21.017 46.511 21.02 46.474 21.023 46.448 21 46.411 21L46.311 21C44.3292 20.9993 42.3615 21.3333 40.491 21.988 37.5904 22.9605 34.9782 24.6412 32.891 26.878 32.6218 27.2016 32.384 27.5502 32.181 27.919 31.8463 28.5584 31.6308 29.2534 31.545 29.97L28.578 51.026C28.293 54.087 29.754 55.377 31.03 55.92 31.1539 55.9731 31.2872 56.0003 31.422 56 31.8228 56 32.1849 55.7607 32.342 55.392Z"/><path d="M57.529 50.748C56.941 51.148 56.352 51.524 55.764 51.857L59.193 64 33.833 64 40.477 40.27 40.515 32C40.515 31.4477 40.0673 31 39.515 31 38.9627 31 38.515 31.4477 38.515 32L38.515 39.863 31.2 66 37.519 66 37.519 93 55.519 93 55.519 66 61.84 66ZM39.515 66 45.515 66 45.515 91 39.515 91ZM53.515 91 47.515 91 47.515 66 53.515 66Z"/><path d="M64.175 13C60.8613 13 58.175 15.6863 58.175 19 58.175 22.3137 60.8613 25 64.175 25 67.4887 25 70.175 22.3137 70.175 19 70.1717 15.6877 67.4873 13.0033 64.175 13ZM64.175 23C61.9659 23 60.175 21.2091 60.175 19 60.175 16.7909 61.9659 15 64.175 15 66.3841 15 68.175 16.7909 68.175 19 68.175 21.2091 66.3841 23 64.175 23Z"/><path d="M61.063 26.079C57.8177 25.5488 54.7571 27.7497 54.2268 30.995 54.2265 30.9967 54.2263 30.9983 54.226 31 53.426 35.91 51.175 39.016 47.348 40.5 44.2814 41.6874 42.7581 45.1359 43.9455 48.2025 45.1329 51.2691 48.5814 52.7924 51.648 51.605 54.1824 50.6325 56.52 49.2096 58.548 47.405 59.2183 47.7934 59.9783 48.0003 60.753 48.005 63.23 48.01 65.2421 46.0061 65.2471 43.5291 65.2496 42.2642 64.7179 41.057 63.783 40.205 64.8451 37.8901 65.5853 35.4407 65.983 32.925 66.515 29.6761 64.3125 26.6111 61.0636 26.0791 61.0634 26.0791 61.0632 26.079 61.063 26.079ZM60.752 46C59.3713 46 58.252 44.8807 58.252 43.5 58.252 42.1193 59.3713 41 60.752 41 62.1327 41 63.252 42.1193 63.252 43.5 63.252 44.8807 62.1327 46 60.752 46ZM64.005 32.593C63.6441 34.8759 62.9795 37.1003 62.029 39.207 61.6157 39.0759 61.1855 39.0062 60.752 39 58.2706 38.9977 56.2571 41.0074 56.2548 43.4888 56.254 44.4031 56.5321 45.2959 57.052 46.048 55.2424 47.626 53.1691 48.873 50.927 49.732 50.4721 49.9092 49.9882 50.0001 49.5 50 47.8687 49.9923 46.4069 48.9906 45.811 47.472 45.0238 45.4352 46.0358 43.1458 48.072 42.357 52.617 40.598 55.272 36.987 56.203 31.318 56.5144 29.4099 58.1596 28.0065 60.093 28 60.3097 28.0003 60.5261 28.0181 60.74 28.053 62.8938 28.4075 64.3543 30.4384 64.005 32.593Z"/></g></svg>