<svg viewBox="0 0 96 96" xmlns="http://www.w3.org/2000/svg" xmlns:xlink="http://www.w3.org/1999/xlink" id="Icons_PiggyBank_M" overflow="hidden"><g id="Icons"><path d="M10 55.8 13.7 56.7C14.3 56.9 14.8 57.3 15.1 57.9 16.8 61.8 19.4 65.3 22.6 68.2 22.9 68.5 23.2 68.9 23.3 69.4L24.8 78.5C25 79.5 25.8 80.2 26.8 80.2L33.4 80.2C34.4 80.2 35.2 79.5 35.4 78.5L35.9 75.3C36.7 75.5 37.5 75.7 38.3 75.8L39.1 75.9C40.4 76.1 41.8 76.2 43.1 76.2 45.8 76.2 48.6 75.8 51.2 75.1L51.8 78.5C52 79.5 52.8 80.2 53.8 80.2L60.4 80.2C61.4 80.2 62.2 79.5 62.4 78.5L63.9 69.4C64 68.9 64.2 68.5 64.6 68.2 64.9 67.9 65.2 67.6 65.5 67.4L66.4 66.6C71.5 61.5 75 55.1 75 48 75 46.3 74.8 44.7 74.4 43.1L74 41.8C75.4 41.3 76.8 41 78.3 41 77.6 42.2 77.1 43.5 77 44.8 76.8 46.4 77.3 47.9 78.2 49.1 79 50 80.2 50.5 81.4 50.4 83 50.3 84.5 49.3 85 47.7 85.9 45.6 85.4 43.2 83.8 41.5 83.3 41 82.8 40.5 82.2 40.2 83.7 39.7 85.4 39.5 87 39.7 87.6 39.7 88 39.3 88.1 38.8 88.1 38.2 87.7 37.8 87.2 37.7L87.2 37.7C83.8 37.5 81.5 38.1 80 39.2 77.8 38.7 75.5 38.9 73.4 39.8L73.2 39.2C68.5 28.1 55.4 20 43 20 38.7 20 34.4 21 30.5 22.8L18.2 17C18.1 16.9 17.9 16.9 17.8 16.9 17.2 16.9 16.8 17.3 16.8 17.9 16.8 18 16.8 18.1 16.8 18.2L20.8 29.5C20.5 29.8 20.2 30.2 19.8 30.6 19.8 30.6 19.7 30.7 19.7 30.7 17.8 32.9 16.2 35.4 15 38.1 14.8 38.7 14.2 39.2 13.6 39.3L10 40.2C8.2 40.6 6.9 42.3 7 44.1L7 51.9C7 53.7 8.2 55.3 10 55.8ZM79 45C79.1 43.7 79.6 42.5 80.4 41.5 81.2 41.9 81.9 42.4 82.4 43 83.4 44 83.8 45.6 83.2 47 83 47.8 82.2 48.4 81.4 48.4 80.8 48.4 80.1 48.2 79.7 47.7 79.1 47 78.9 46 79 45ZM9 44.1C8.9 43.2 9.6 42.4 10.4 42.2L10.4 42.2 10.4 42.2 14 41.3 14 41.3 14 41.3C15.2 41 16.3 40.1 16.7 38.9 17.7 36.6 19.1 34.5 20.7 32.6L20.7 32.6C21.8 31.4 22.9 30.3 24.2 29.3 24.6 29 24.7 28.3 24.3 27.9 24 27.5 23.3 27.4 22.9 27.8L22.9 27.8C22.9 27.8 22.6 28 22.3 28.3L19.4 20C19.4 20 19.4 20 19.4 20 19.4 20 19.4 20 19.4 20L29.5 24.8 30.3 25.2 31.1 24.8C35 22.9 39 22 43 22 54.8 22 67 29.7 71.3 40L72.5 43.7C72.9 45.1 73 46.6 73 48.1 73 54.4 69.9 60.7 64.1 66 62.2 67.7 59.7 69.6 59.6 69.6 59.2 69.9 59.1 70.6 59.4 71 59.6 71.2 59.9 71.4 60.2 71.4 60.4 71.4 60.6 71.3 60.8 71.2 60.8 71.2 61.1 70.9 61.6 70.6L60.3 78.2C60.3 78.2 60.3 78.3 60.3 78.3L60.3 78.3 53.7 78.3C53.7 78.3 53.7 78.3 53.7 78.2L53.1 74.8 52.7 72.6 50.6 73.2C48.1 73.9 45.6 74.2 43 74.2 41.5 74.2 40 74.1 38.5 73.8 36.3 73.4 34.2 72.7 32.1 71.9 31.6 71.7 31 71.9 30.8 72.4 30.6 72.9 30.8 73.5 31.3 73.7 31.9 74 32.8 74.3 33.8 74.6L33.9 75 33.4 78.1C33.4 78.2 33.4 78.2 33.4 78.2L33.4 78.2 26.8 78.2C26.8 78.2 26.8 78.1 26.8 78.1L25.3 69 25.3 69 25.3 69C25.1 68.2 24.7 67.4 24.1 66.8L24.1 66.8 24.1 66.8C21.1 64.1 18.7 60.8 17.1 57.2L17.1 57.2 17.1 57.2C16.6 56.2 15.7 55.4 14.5 55L14.4 55 14.3 55 10.6 54.1C9.7 53.9 9.1 53.1 9.1 52.1L9.1 44.1Z"/><path d="M36.6 27.7C38.5 27.2 40.5 27 42.5 27 46.5 27.1 50.5 27.9 54.2 29.6 54.7 29.8 55.3 29.6 55.5 29.1 55.7 28.6 55.5 28 55 27.8L55 27.8C51.1 26 46.8 25.1 42.5 25.1 40.3 25.1 38.1 25.4 36 25.9 35.5 26 35.1 26.6 35.3 27.1 35.5 27.6 36 28 36.5 27.8L36.5 27.8C36.5 27.7 36.5 27.7 36.6 27.7Z"/></g></svg>