<svg viewBox="0 0 96 96" xmlns="http://www.w3.org/2000/svg" xmlns:xlink="http://www.w3.org/1999/xlink" id="Icons_MagicianHat_M" overflow="hidden"><g id="Icons"><path d="M71.5 30C72.9 25.2 76.3 21.2 80.8 19 76.3 16.8 72.9 12.8 71.5 8 70.1 12.8 66.7 16.8 62.2 19 66.7 21.2 70.1 25.2 71.5 30ZM71.5 13C71.5 13 71.6 13.2 71.7 13.3 73 15.5 74.8 17.5 76.9 19 74.7 20.6 72.9 22.7 71.6 25 70.3 22.6 68.5 20.6 66.3 19 68.4 17.5 70.1 15.5 71.4 13.3 71.4 13.2 71.5 13 71.5 13Z"/><path d="M21.7 30C22.6 26.9 24.7 24.4 27.6 23 24.7 21.6 22.6 19.1 21.7 16 20.8 19.1 18.7 21.6 15.8 23 18.7 24.4 20.8 26.9 21.7 30ZM21.7 20.5C22.3 21.4 23.1 22.2 23.9 23 23.1 23.7 22.3 24.6 21.7 25.5 21.1 24.6 20.3 23.8 19.5 23 20.3 22.3 21.1 21.4 21.7 20.5Z"/><path d="M39.3 15C40.1 12.1 42.1 9.8 44.8 8.5 42.1 7.2 40.1 4.9 39.3 2 38.5 4.9 36.5 7.2 33.8 8.5 36.5 9.8 38.5 12.1 39.3 15ZM39.3 6.5C39.8 7.2 40.5 7.9 41.1 8.5 40.4 9.1 39.8 9.8 39.3 10.5 38.8 9.8 38.1 9.1 37.5 8.5 38.1 7.9 38.8 7.2 39.3 6.5Z"/><path d="M49.6 24C50.1 22.2 51.3 20.8 53 20 51.3 19.2 50.1 17.8 49.6 16 49.1 17.8 47.9 19.2 46.2 20 47.8 20.8 49.1 22.2 49.6 24Z"/><path d="M82.6 44.1C82.6 35.4 64.7 30.7 47.8 30.7 30.9 30.7 13 35.4 13 44.1 13 48.8 18.3 52.4 25.9 54.6 26 66 24.8 77.4 22.3 88.5 27.4 91.8 36.4 94 47.8 94 59.2 94 68.2 91.8 73.3 88.5 70.9 77.4 69.7 66 69.7 54.6 77.3 52.3 82.6 48.8 82.6 44.1ZM15 44.1C15 37.8 29.7 32.7 47.8 32.7 65.9 32.7 80.6 37.8 80.6 44.1 80.6 50.4 65.9 55.5 47.8 55.5 29.7 55.5 15 50.3 15 44.1ZM71 87.5C65.8 90.4 57.4 92 47.8 92 38.2 92 29.8 90.4 24.6 87.5 26.2 79.8 27.2 72 27.7 64.2 34.3 65.7 41.1 66.4 47.8 66.4 54.6 66.4 61.3 65.7 67.9 64.2 68.4 72.1 69.4 79.9 71 87.5ZM67.8 62.2C61.2 63.7 54.5 64.4 47.8 64.4 41.1 64.4 34.3 63.7 27.8 62.2 27.9 59.9 27.9 57.5 27.9 55.1 34.4 56.7 41.1 57.4 47.8 57.4 54.5 57.4 61.2 56.7 67.7 55.1 67.7 57.5 67.7 59.9 67.8 62.2Z"/><path d="M68 44.1C68 42.7 67 41.4 65.6 41.1 59.8 39.7 53.8 39 47.8 39 41.8 38.9 35.8 39.6 30 41.1 28.3 41.5 27.3 43.1 27.7 44.8 28 46 28.9 46.9 30 47.1 35.8 48.5 41.8 49.2 47.8 49.2 53.8 49.3 59.8 48.6 65.6 47.1 67 46.7 68 45.5 68 44.1ZM47.8 47.1C42 47.2 36.1 46.5 30.5 45.1 29.9 45 29.5 44.4 29.6 43.9 29.7 43.4 30 43.1 30.5 43 36.2 41.6 42 40.9 47.8 41 53.6 40.9 59.5 41.6 65.1 43 65.7 43.1 66.1 43.7 66 44.2 65.9 44.7 65.6 45 65.1 45.1 59.4 46.5 53.6 47.2 47.8 47.1L47.8 47.1Z"/></g></svg>