<svg viewBox="0 0 96 96" xmlns="http://www.w3.org/2000/svg" xmlns:xlink="http://www.w3.org/1999/xlink" id="Icons_PointedHat_M" overflow="hidden"><g id="Icons"><path d="M69.9 60.1 60.8 39.4C57.3 31.4 57.7 22.3 61.9 14.6L66 7.3C66.4 6.6 66.1 5.6 65.4 5.2 65 5 64.5 5 64 5.2L60.5 6.9C46.6 13.6 36.2 25.9 31.9 40.7L26.5 59.1C14.3 62.4 4.5 69 4.5 75.3 4.5 80.1 9.7 84.5 17.4 87.6L23 85 22.2 89.3C28.5 91.1 35.1 92 41.7 92 43.9 92 46 91.9 48.2 91.7 73.1 89.3 92 82.1 92 74.1 92 65 82.7 62 69.9 60.1ZM47.7 89.7C45.8 89.9 43.8 90 41.8 90 36 90 30.2 89.3 24.6 87.8L25 85.3 25.7 81.5 22.2 83.1 17.4 85.3C10.6 82.4 6.5 78.7 6.5 75.2 6.5 70.4 14.8 64.5 25.8 61.2L22 73.1C21.8 73.6 22.1 74.2 22.7 74.4 22.7 74.4 22.8 74.4 22.8 74.4 29 75.5 33.7 76.1 37.4 76.5L37.4 74.5C34 74.1 29.7 73.6 24.2 72.6L26 66.9C31 67.7 34.5 68.2 37.4 68.5L37.4 66.5C34.7 66.2 31.3 65.7 26.7 65L28.2 60.3 33.8 41.2C38 26.9 48 15.1 61.4 8.7L63.6 7.7C63.6 7.7 63.6 7.7 63.6 7.7L60.3 13.7C55.8 21.9 55.4 31.7 59.1 40.2L68.4 61.4 69.5 64.7C65.9 65.7 62.3 66.4 58.6 66.6L58.6 68.6C62.5 68.3 66.4 67.6 70.2 66.6L71.9 71.8C67.5 73 63.1 73.9 58.6 74.4L58.6 76.4C63.6 75.8 68.6 74.8 73.5 73.4 74 73.2 74.3 72.7 74.1 72.1L70.9 62.3C82.9 64.2 90 66.9 90 74.1 90 79.8 74.3 87.1 48 89.7 48 89.7 47.8 89.7 47.7 89.7Z"/><path d="M55.5 63 40.5 63C39.9 63 39.5 63.4 39.5 64L39.5 79C39.5 79.6 39.9 80 40.5 80L55.5 80C56.1 80 56.5 79.6 56.5 79L56.5 64C56.5 63.4 56 63 55.5 63ZM54.5 78 41.5 78 41.5 65 54.5 65 54.5 78Z"/><path d="M45.5 75 50.5 75C51.1 75 51.5 74.6 51.5 74L51.5 69C51.5 68.4 51.1 68 50.5 68L45.5 68C44.9 68 44.5 68.4 44.5 69L44.5 74C44.5 74.6 44.9 75 45.5 75ZM46.5 70 49.5 70 49.5 73 46.5 73 46.5 70Z"/></g></svg>