<svg viewBox="0 0 96 96" xmlns="http://www.w3.org/2000/svg" xmlns:xlink="http://www.w3.org/1999/xlink" id="Icons_StuffedToy_M" overflow="hidden"><g id="Icons"><path d="M66.912 67.828C68.5658 63.6812 68.9392 59.134 67.984 54.773 69.384 54.363 70.684 53.932 71.792 53.491 75.6532 51.9914 77.5676 47.6457 76.068 43.7845 74.5684 39.9234 70.2226 38.0089 66.3615 39.5085 66.3577 39.51 66.3538 39.5115 66.35 39.513L66.22 39.565C65.0287 39.993 63.8237 40.3777 62.605 40.719 62.081 40.866 61.549 40.981 61.015 41.078 64.791 37.7771 66.9702 33.0153 67 28 67 27.577 66.963 27.162 66.933 26.746L67.44 26.478C72.3951 24.039 74.4349 18.0449 71.9959 13.0898 69.5569 8.13468 63.5628 6.09494 58.6077 8.53391 57.2832 9.18586 56.1194 10.123 55.2 11.278L55.167 11.339C50.5586 9.55501 45.4504 9.55501 40.842 11.339L40.81 11.28C37.3699 6.95936 31.0787 6.24551 26.758 9.68556 22.4374 13.1256 21.7235 19.4169 25.1636 23.7375 26.0825 24.8917 27.2455 25.8282 28.569 26.48L29.069 26.744C29.039 27.161 29.002 27.577 29.002 28.002 29.0317 33.0156 31.2093 37.776 34.983 41.077 34.456 40.977 33.932 40.867 33.415 40.722 32.1963 40.38 30.9903 39.995 29.797 39.567 25.9377 38.0626 21.5896 39.9715 20.0852 43.8308 18.6004 47.6396 20.4393 51.9359 24.22 53.491 25.32 53.932 26.633 54.363 28.028 54.773 27.0578 59.1726 27.4462 63.763 29.142 67.937L23.574 71.119C19.1263 73.5857 17.3324 79.0644 19.46 83.684 21.7512 88.404 27.4349 90.3729 32.1549 88.0816 32.3462 87.9888 32.5344 87.8895 32.719 87.784L44.985 80.775C46.9841 81.1217 49.0279 81.1217 51.027 80.775L63.01 87.618C64.5297 88.4863 66.2498 88.9427 68 88.942 73.2105 88.9983 77.4801 84.82 77.5364 79.6095 77.5736 76.1615 75.7269 72.9678 72.72 71.28L66.87 67.939ZM64.912 19.828C63.9565 18.0628 62.715 16.4681 61.238 15.109L61.28 15.083C62.6246 14.1234 64.4925 14.4354 65.4521 15.78 66.3023 16.9713 66.1656 18.6028 65.129 19.636ZM63.012 9.528C64.8262 9.52199 66.5872 10.1399 68 11.278 71.447 14.027 72.0128 19.0497 69.2639 22.4967 68.5558 23.3846 67.6663 24.1112 66.655 24.628 66.4519 23.6375 66.1611 22.667 65.786 21.728L66.486 21.11C68.468 19.1951 68.5224 16.0361 66.6076 14.0541 64.9009 12.2876 62.1625 12.0258 60.152 13.437L59.594 13.773C58.7946 13.1797 57.95 12.6497 57.068 12.188 58.5784 10.4932 60.7409 9.5246 63.011 9.526ZM26.76 22.515C24.0052 19.0659 24.5645 14.0373 28.01 11.278 31.3144 8.6283 36.1136 9.02348 38.94 12.178 38.057 12.6404 37.2114 13.171 36.411 13.765L35.893 13.454C33.8785 12.0329 31.1304 12.2841 29.407 14.047 27.491 16.0287 27.5443 19.1884 29.526 21.1043 29.5366 21.1146 29.5473 21.1248 29.558 21.135L30.217 21.716C29.8413 22.6549 29.5502 23.6254 29.347 24.616 28.3474 24.104 27.4662 23.3883 26.76 22.515ZM30.915 19.67C29.7281 18.5314 29.689 16.6462 30.8276 15.4594 31.3905 14.8726 32.1689 14.5415 32.982 14.543 33.6207 14.5451 34.2433 14.743 34.766 15.11 33.29 16.4691 32.049 18.063 31.093 19.827ZM31 28C31 19.178 38.626 12 48 12 57.374 12 65 19.178 65 28 65 36.822 57.374 44 48 44 38.626 44 31 36.822 31 28ZM30.974 67.128C29.4427 63.3443 29.0965 59.1848 29.981 55.2L30.146 54.451 30.688 52.498C30.8414 51.9674 30.5356 51.413 30.005 51.2597 29.4744 51.1063 28.92 51.4121 28.7666 51.9427 28.7647 51.9494 28.7628 51.9562 28.761 51.963L28.52 52.828C27.096 52.408 25.898 52.005 24.963 51.628 22.143 50.4989 20.7724 47.2975 21.9015 44.4775 23.0306 41.6575 26.232 40.2868 29.052 41.416L29.085 41.429 29.119 41.441C30.352 41.884 31.619 42.287 32.873 42.641 34.6183 43.1202 36.4173 43.3759 38.227 43.402 44.2842 46.86 51.7178 46.86 57.775 43.402 59.59 43.3773 61.3946 43.1216 63.145 42.641 64.404 42.288 65.666 41.885 66.896 41.441L66.936 41.427 66.975 41.411 67.075 41.371C69.9071 40.2728 73.0933 41.6784 74.1915 44.5105 75.2897 47.3426 73.8841 50.5288 71.052 51.627 70.081 52.013 68.891 52.414 67.522 52.817L67.284 51.961C67.1363 51.4286 66.5849 51.1168 66.0525 51.2645 65.5201 51.4122 65.2083 51.9636 65.356 52.496L65.739 53.872 66.031 55.198C66.9193 59.2015 66.5656 63.3807 65.017 67.178L64.762 67.805 63.972 69.589C63.7362 70.0884 63.9498 70.6844 64.4492 70.9202 64.9487 71.1561 65.5447 70.9424 65.7805 70.443 65.7874 70.4285 65.7939 70.4138 65.8 70.399L66.074 69.78 71.727 73.011C75.3151 75.0077 76.6052 79.535 74.6086 83.1231 73.277 85.5159 70.738 86.9831 68 86.942 66.5972 86.9421 65.2187 86.5767 64 85.882L53.784 80.043C54.3866 79.7981 54.9618 79.4904 55.5 79.125 55.9655 78.8277 56.1018 78.2094 55.8045 77.744 55.5072 77.2785 54.8889 77.1422 54.4235 77.4394 54.4077 77.4495 54.3922 77.46 54.377 77.471 53.4017 78.1224 52.2941 78.5493 51.134 78.721L50.685 78.8C48.9123 79.108 47.0997 79.108 45.327 78.8L45.072 78.756 44.913 78.73C43.7517 78.555 42.6435 78.125 41.668 77.471 41.22 77.1481 40.595 77.2495 40.272 77.6975 39.9491 78.1455 40.0505 78.7705 40.4985 79.0934 40.5137 79.1044 40.5292 79.1149 40.545 79.125 41.0785 79.4866 41.6483 79.7915 42.245 80.035L31.727 86.043C28.131 88.0988 23.5494 86.8503 21.4936 83.2543 21.4097 83.1076 21.3308 82.9581 21.257 82.806 19.5767 79.135 21.0218 74.7896 24.566 72.856L29.966 69.771 30.247 70.405C30.407 70.7663 30.7648 70.9995 31.16 71 31.2979 70.9997 31.4342 70.9704 31.56 70.914 32.0647 70.6902 32.2925 70.0998 32.069 69.595Z"/><circle cx="40.006" cy="26.528" r="2"/><path d="M48.006 41.528C52.255 41.528 55.712 38.388 55.712 34.528 55.712 30.668 52.255 27.528 48.006 27.528 43.757 27.528 40.3 30.669 40.3 34.528 40.3 38.387 43.757 41.528 48.006 41.528ZM48.006 29.528C51.152 29.528 53.712 31.771 53.712 34.528 53.712 37.285 51.152 39.528 48.006 39.528 44.86 39.528 42.3 37.285 42.3 34.528 42.3 31.771 44.859 29.528 48.006 29.528Z"/><circle cx="56.006" cy="26.528" r="2"/><path d="M48.006 35.028C49.1184 34.9297 49.9405 33.9482 49.8422 32.8358 49.7438 31.7235 48.7624 30.9014 47.65 30.9997 46.6063 31.0919 45.8059 31.9662 45.806 33.014 45.8606 34.1762 46.8435 35.076 48.006 35.028Z"/></g></svg>