<svg viewBox="0 0 96 96" xmlns="http://www.w3.org/2000/svg" xmlns:xlink="http://www.w3.org/1999/xlink" id="Icons_Gnome_M" overflow="hidden"><g id="Icons"><path d="M72.757 62.7C72.757 57.63 69.201 53.005 63.724 49.914 64.2675 48.3325 64.5469 46.6723 64.551 45 64.5139 42.2674 63.4732 39.6439 61.627 37.629 61.8156 37.4082 61.8972 37.1155 61.85 36.829 59.8382 24.6653 55.7682 12.9334 49.815 2.137 49.2834 1.1625 48.0624 0.803483 47.0879 1.33512 46.7492 1.51991 46.4708 1.79828 46.286 2.137 40.3326 12.9362 36.2627 24.6707 34.251 36.837 34.2039 37.1237 34.2859 37.4165 34.475 37.637 32.6307 39.6499 31.5901 42.2702 31.551 45 31.5553 46.671 31.8347 48.3298 32.378 49.91 26.9 53 23.344 57.627 23.344 62.7 23.344 66.451 25.432 70.068 29.219 72.892L27.893 76C27.5689 76.7458 27.7303 77.6137 28.301 78.193 29.5165 79.4072 30.8886 80.4538 32.381 81.305L33.381 87.098C30.5873 87.6059 28.5555 90.0375 28.552 92.877L28.552 93C28.552 94.1046 29.4474 95 30.552 95L43.552 95C44.6566 95 45.552 94.1046 45.552 93L45.552 90.5C45.552 89.1193 46.6713 88 48.052 88 49.4327 88 50.552 89.1193 50.552 90.5L50.552 93C50.552 94.1046 51.4474 95 52.552 95L65.552 95C66.6566 95 67.552 94.1046 67.552 93L67.552 92.872C67.5489 90.0524 65.546 87.6314 62.777 87.1L64.13 81.064C65.4659 80.2572 66.6983 79.2904 67.8 78.185 68.3735 77.6042 68.5344 76.7322 68.206 75.985L66.876 72.885 66.945 72.843C70.693 70.03 72.757 66.426 72.757 62.7ZM48.064 3.1C53.6655 13.276 57.5644 24.3 59.606 35.735 56.2691 33.2548 52.2083 31.9422 48.051 32 43.8932 31.9425 39.8322 33.2554 36.495 35.736 38.5361 24.2992 42.4381 13.2744 48.046 3.1 48.0484 3.09503 48.0544 3.09295 48.0594 3.09536 48.0614 3.09634 48.063 3.09798 48.064 3.1ZM48.051 40C45.9839 39.8735 44.2 41.4344 44.051 43.5 44.0608 44.2848 44.3587 45.0385 44.888 45.618 43.91 45.697 42.956 45.811 42.073 45.957 41.1907 46.1073 40.2871 45.8603 39.604 45.282 38.9349 44.715 38.5497 43.882 38.551 43.005L38.551 36.705C44.3693 33.093 51.7327 33.093 57.551 36.705L57.551 43.005C57.5528 43.8817 57.1683 44.7146 56.5 45.282 55.8174 45.8613 54.9133 46.1084 54.031 45.957 53.148 45.811 52.194 45.697 51.216 45.618 51.7453 45.0385 52.0432 44.2848 52.053 43.5 51.904 41.4335 50.1189 39.8724 48.051 40ZM46.127 47.553C47.4 47.491 48.701 47.491 49.975 47.553 50.3083 47.7575 50.5227 48.11 50.551 48.5 50.551 49.328 49.431 50 48.051 50 46.671 50 45.551 49.328 45.551 48.5 45.579 48.1099 45.7934 47.7572 46.127 47.553ZM46.051 43.5C46.051 42.687 46.967 42 48.051 42 49.135 42 50.051 42.687 50.051 43.5 50.051 44.313 49.135 45 48.051 45 46.967 45 46.051 44.313 46.051 43.5ZM36.551 38.327 36.551 43.005C36.5537 45.7664 38.7946 48.0028 41.556 48 41.559 48 41.562 48 41.565 48 41.8451 47.9999 42.1248 47.9765 42.401 47.93 42.801 47.864 43.221 47.806 43.647 47.755 43.5826 47.9982 43.549 48.2485 43.547 48.5 43.547 50.495 45.481 52 48.047 52 50.613 52 52.547 50.495 52.547 48.5 52.5455 48.2484 52.5119 47.9981 52.447 47.755 52.873 47.806 53.291 47.864 53.693 47.93 55.1553 48.1749 56.6513 47.7646 57.784 46.808 58.901 45.8618 59.5447 44.4719 59.544 43.008L59.544 38.327C61.4051 40.0542 62.4873 42.4615 62.544 45 62.544 55.144 50.444 61.689 48.044 62.89 45.644 61.69 33.544 55.159 33.544 45 33.6025 42.4605 34.6873 40.053 36.551 38.327ZM63.151 65.149C62.8832 65.5546 62.5121 65.8815 62.076 66.096 59.6671 67.1305 57.1417 67.8692 54.555 68.296L54.555 66 41.555 66 41.555 68.294C38.9789 67.8712 36.4635 67.1375 34.064 66.109 33.6147 65.8792 33.269 65.4881 33.096 65.014L32.614 63.7C32.8801 60.8467 33.9786 58.1344 35.773 55.9 39.0623 59.6927 43.1033 62.7611 47.64 64.911L48.051 65.097 48.462 64.911C52.9989 62.761 57.0402 59.6926 60.33 55.9 62.1848 58.1238 63.2881 60.8777 63.482 63.767 63.4772 64.2472 63.3626 64.7199 63.147 65.149ZM63.551 67.518 63.551 68.125C63.5105 68.7403 63.1865 69.302 62.674 69.645 60.1883 71.2141 57.4346 72.3115 54.551 72.882L54.551 70.325C57.4518 69.8645 60.2836 69.0425 62.98 67.878 63.1801 67.7743 63.3711 67.6538 63.551 67.518ZM52.551 68 52.551 76.1 43.551 76.1 43.551 68ZM41.551 70.326 41.551 72.866C38.6787 72.2795 35.9351 71.1817 33.451 69.625 32.8861 69.2552 32.5473 68.6242 32.551 67.949L32.551 67.49C32.7368 67.6436 32.9378 67.7776 33.151 67.89 35.8383 69.0496 38.6602 69.868 41.551 70.326ZM25.344 62.7C25.344 58.484 28.425 54.55 33.154 51.815 33.5598 52.6598 34.026 53.4743 34.549 54.252 32.3664 56.8 31.0051 59.9484 30.644 63.284L30.602 63.991C30.581 64.327 30.551 64.661 30.551 65.003L30.551 69.774 30.035 70.982C27.015 68.6 25.344 65.675 25.344 62.7ZM65.551 92.872 65.551 93 52.551 93 52.551 90.5C52.551 88.0147 50.5363 86 48.051 86 45.5657 86 43.551 88.0147 43.551 90.5L43.551 93 30.551 93 30.551 92.872C30.5532 90.7345 32.2855 89.0022 34.423 89L35.739 89 34.607 82.438C38.8709 84.186 43.4431 85.0573 48.051 85 52.7738 85.0626 57.4579 84.1411 61.805 82.294L60.3 89 61.676 89C63.8145 89.0011 65.5482 90.7335 65.551 92.872ZM48.051 83C43.504 83 35.076 82.192 29.733 76.779L32.141 71.139C32.214 71.194 32.284 71.252 32.362 71.302 35.1725 73.0717 38.289 74.3005 41.551 74.925L41.551 78.1 54.551 78.1 54.551 74.939C57.8287 74.3316 60.9595 73.1014 63.774 71.315 63.841 71.271 63.902 71.215 63.966 71.171L66.378 76.782C61.024 82.192 52.6 83 48.051 83ZM66.064 70.993 65.551 69.793 65.551 65C65.5393 61.0546 64.121 57.2426 61.551 54.249 62.0757 53.4714 62.5436 52.657 62.951 51.812 67.679 54.548 70.76 58.481 70.76 62.697 70.757 65.7 69.061 68.647 66.064 70.993Z"/><path d="M44.207 37C42.9379 37.059 41.7088 37.4628 40.652 38.168 40.1925 38.4745 40.0685 39.0955 40.375 39.555 40.6815 40.0145 41.3025 40.1385 41.762 39.832 42.491 39.3472 43.3336 39.0605 44.207 39 44.7593 39 45.207 38.5523 45.207 38 45.207 37.4477 44.7593 37 44.207 37Z"/><path d="M54.206 40C54.7583 40.0007 55.2066 39.5535 55.2072 39.0012 55.2076 38.6665 55.0405 38.3537 54.762 38.168 53.7052 37.4628 52.4761 37.059 51.207 37 50.6547 37 50.207 37.4477 50.207 38 50.207 38.5523 50.6547 39 51.207 39 52.0808 39.0584 52.9239 39.3453 53.652 39.832 53.8161 39.9414 54.0088 39.9998 54.206 40Z"/></g></svg>